<?xml version="1.0" encoding="UTF-8" standalone="no"?>
<!DOCTYPE svg PUBLIC "-//W3C//DTD SVG 1.1//EN" "http://www.w3.org/Graphics/SVG/1.1/DTD/svg11.dtd">
<svg width="100%" height="100%" viewBox="0 0 300 300" version="1.1" xmlns="http://www.w3.org/2000/svg" xmlns:xlink="http://www.w3.org/1999/xlink" xml:space="preserve" xmlns:affinity="https://www.affinity.studio/" style="fill-rule:evenodd;clip-rule:evenodd;stroke-linejoin:round;stroke-miterlimit:2;">
    <g transform="matrix(0.790734,0,0,0.790734,-1379.484584,-1098.694556)">
        <path d="M1869.363,1623.577C1866.504,1620.332 1865.884,1615.497 1868.164,1611.548C1870.444,1607.598 1874.942,1605.718 1879.182,1606.572C1880.562,1602.473 1884.438,1599.518 1889,1599.518C1893.562,1599.518 1897.438,1602.473 1898.818,1606.572C1903.058,1605.718 1907.556,1607.598 1909.836,1611.548C1912.116,1615.497 1911.496,1620.332 1908.637,1623.577C1911.495,1626.822 1912.116,1631.656 1909.837,1635.606C1907.556,1639.557 1903.058,1641.436 1898.818,1640.583C1897.438,1644.682 1893.562,1647.637 1889,1647.637C1884.438,1647.637 1880.562,1644.682 1879.182,1640.583C1874.942,1641.436 1870.444,1639.557 1868.163,1635.606C1865.884,1631.656 1866.505,1626.822 1869.363,1623.577ZM1891.707,1628.252C1890.911,1628.714 1889.986,1628.979 1889,1628.979C1888.174,1628.979 1887.391,1628.793 1886.691,1628.461C1885.532,1631.289 1883.783,1635.752 1883.783,1637.279C1883.783,1640.159 1886.12,1642.497 1889,1642.497C1891.88,1642.497 1894.217,1640.159 1894.217,1637.279C1894.217,1635.714 1892.748,1631.063 1891.707,1628.252ZM1886.27,1628.238C1884.699,1627.315 1883.635,1625.621 1883.6,1623.678C1880.859,1624.088 1875.991,1625.064 1874.525,1625.91C1872.031,1627.35 1871.176,1630.543 1872.615,1633.037C1874.055,1635.531 1877.249,1636.386 1879.743,1634.947C1881.062,1634.185 1884.307,1630.602 1886.27,1628.238ZM1883.6,1623.477C1883.635,1621.533 1884.699,1619.839 1886.27,1618.917C1884.307,1616.553 1881.062,1612.97 1879.743,1612.208C1877.249,1610.768 1874.055,1611.624 1872.615,1614.118C1871.176,1616.611 1872.031,1619.805 1874.525,1621.245C1875.991,1622.091 1880.859,1623.066 1883.6,1623.477ZM1894.4,1623.678C1894.367,1625.487 1893.443,1627.081 1892.047,1628.037C1893.875,1630.393 1896.9,1634.163 1898.257,1634.947C1900.751,1636.386 1903.945,1635.531 1905.385,1633.037C1906.824,1630.543 1905.969,1627.35 1903.475,1625.91C1902.009,1625.064 1897.141,1624.088 1894.4,1623.678ZM1892.047,1619.118C1893.443,1620.074 1894.367,1621.667 1894.4,1623.477C1897.141,1623.066 1902.009,1622.091 1903.475,1621.245C1905.969,1619.805 1906.824,1616.611 1905.385,1614.118C1903.945,1611.624 1900.751,1610.768 1898.257,1612.208C1896.9,1612.992 1893.875,1616.762 1892.047,1619.118ZM1886.691,1618.694C1887.391,1618.362 1888.174,1618.176 1889,1618.176C1889.986,1618.176 1890.911,1618.441 1891.707,1618.903C1892.748,1616.091 1894.217,1611.44 1894.217,1609.875C1894.217,1606.996 1891.88,1604.658 1889,1604.658C1886.12,1604.658 1883.783,1606.996 1883.783,1609.875C1883.783,1611.402 1885.532,1615.866 1886.691,1618.694Z"/>
    </g>
    <g transform="matrix(1.24479,0,0,1.24479,-1466.799194,-910.292098)">
        <path d="M1303.109,882.01C1302,882.01 1301.099,881.109 1301.099,880C1301.099,878.891 1302,877.99 1303.109,877.99L1351.171,877.99C1352.28,877.99 1353.181,878.891 1353.181,880C1353.181,881.109 1352.28,882.01 1351.171,882.01L1303.109,882.01Z"/>
    </g>
    <g transform="matrix(1,0,0,1,-554.755694,-1029.735486)">
        <g transform="matrix(0.798751,0,0,0.798751,-390.123693,519.963957)">
            <circle cx="1387.28" cy="879.777" r="3.223"/>
        </g>
        <g transform="matrix(0.798751,0,0,0.798751,-379.123693,519.963957)">
            <circle cx="1387.28" cy="879.777" r="3.223"/>
        </g>
        <g transform="matrix(0.798751,0,0,0.798751,-368.123693,519.963957)">
            <circle cx="1387.28" cy="879.777" r="3.223"/>
        </g>
        <g transform="matrix(0.798751,0,0,0.798751,-357.123693,519.963957)">
            <circle cx="1387.28" cy="879.777" r="3.223"/>
        </g>
        <g transform="matrix(0.798751,0,0,0.798751,-346.123693,519.963957)">
            <circle cx="1387.28" cy="879.777" r="3.223"/>
        </g>
    </g>
    <g transform="matrix(1,0,0,1,-554.755694,-1030.235486)">
        <g transform="matrix(0.798751,0,0,0.798751,-384.591325,527.963957)">
            <circle cx="1387.28" cy="879.777" r="3.223"/>
        </g>
        <g transform="matrix(0.798751,0,0,0.798751,-373.591325,527.963957)">
            <circle cx="1387.28" cy="879.777" r="3.223"/>
        </g>
        <g transform="matrix(0.798751,0,0,0.798751,-362.591325,527.963957)">
            <circle cx="1387.28" cy="879.777" r="3.223"/>
        </g>
        <g transform="matrix(0.798751,0,0,0.798751,-351.591325,527.963957)">
            <circle cx="1387.28" cy="879.777" r="3.223"/>
        </g>
    </g>
    <g transform="matrix(1,0,0,1,-554.755694,-1029.735486)">
        <g transform="matrix(0.798751,0,0,0.798751,-379.123693,534.963957)">
            <circle cx="1387.28" cy="879.777" r="3.223"/>
        </g>
        <g transform="matrix(0.798751,0,0,0.798751,-368.123693,534.963957)">
            <circle cx="1387.28" cy="879.777" r="3.223"/>
        </g>
        <g transform="matrix(0.798751,0,0,0.798751,-357.123693,534.963957)">
            <circle cx="1387.28" cy="879.777" r="3.223"/>
        </g>
    </g>
    <g transform="matrix(1.00334,0,0,1.00334,-1542.763603,-1578.493961)">
        <path d="M1669.148,1686.162C1669.193,1686.68 1669.217,1687.204 1669.217,1687.734C1669.217,1697.534 1661.26,1705.49 1651.461,1705.49C1641.661,1705.49 1633.705,1697.534 1633.705,1687.734C1633.705,1677.935 1641.661,1669.978 1651.461,1669.978C1654.63,1669.978 1657.606,1670.811 1660.183,1672.267C1661.153,1672.816 1661.641,1673.941 1661.377,1675.024C1661.114,1676.107 1660.163,1676.882 1659.05,1676.923C1655.961,1677.037 1653.49,1679.58 1653.49,1682.696C1653.49,1685.884 1656.078,1688.472 1659.266,1688.472C1661.53,1688.472 1663.492,1687.165 1664.439,1685.266C1664.937,1684.269 1666.037,1683.724 1667.132,1683.932C1668.227,1684.14 1669.051,1685.051 1669.148,1686.162ZM1663.237,1692.694C1662.008,1693.183 1660.668,1693.452 1659.266,1693.452C1653.33,1693.452 1648.51,1688.632 1648.51,1682.696C1648.51,1679.661 1649.769,1676.919 1651.795,1674.962C1651.684,1674.959 1651.573,1674.958 1651.461,1674.958C1644.409,1674.958 1638.685,1680.683 1638.685,1687.734C1638.685,1694.786 1644.409,1700.51 1651.461,1700.51C1656.753,1700.51 1661.299,1697.285 1663.237,1692.694Z"/>
    </g>
    <g transform="matrix(1.726486,0.462611,-0.316413,1.18087,-1723.143779,-1506.587937)">
        <path d="M1250.647,881.481L1248.329,879.181C1248.329,879.181 1251.138,873.008 1257.134,872.389C1259.517,872.143 1261.456,872.743 1263.41,873.398C1265.968,874.256 1268.558,875.216 1272.546,873.764C1279.059,871.393 1279.922,864.545 1279.922,864.545L1282.69,865.182C1282.69,865.182 1281.801,874.615 1273.222,877.738C1269.396,879.131 1266.686,878.631 1264.185,877.851C1261.982,877.164 1259.967,876.203 1257.332,876.475C1252.808,876.942 1250.647,881.481 1250.647,881.481Z"/>
    </g>
    <g transform="matrix(1.78739,0,0,1.222526,-2074.277033,-943.510048)">
        <path d="M1248.568,883.65L1246.476,880.928C1246.476,880.928 1251.374,872.984 1257.134,872.389C1259.517,872.143 1261.456,872.743 1263.41,873.398C1265.968,874.256 1268.558,875.216 1272.546,873.764C1279.052,871.395 1279.598,862.991 1279.598,862.991L1282.39,863.333C1282.39,863.333 1281.807,874.613 1273.222,877.738C1269.396,879.131 1266.686,878.631 1264.185,877.851C1261.982,877.164 1259.967,876.203 1257.332,876.475C1252.572,876.966 1248.568,883.65 1248.568,883.65Z"/>
    </g>
    <g transform="matrix(1.771556,0.237384,-0.162364,1.211697,-1914.299774,-1241.641515)">
        <path d="M1250.338,882.611L1247.968,880.427C1247.968,880.427 1251.167,873.005 1257.134,872.389C1259.517,872.143 1261.456,872.743 1263.41,873.398C1265.968,874.256 1268.558,875.216 1272.546,873.764C1279.052,871.395 1279.598,862.991 1279.598,862.991L1282.39,863.333C1282.39,863.333 1281.807,874.613 1273.222,877.738C1269.396,879.131 1266.686,878.631 1264.185,877.851C1261.982,877.164 1259.967,876.203 1257.332,876.475C1252.779,876.945 1250.338,882.611 1250.338,882.611Z"/>
    </g>
    <g transform="matrix(1.20532,0,0,1.20532,84.079277,84.743489)">
        <path d="M-2.075,16C-2.075,12.11 -2.066,9.193 -1.764,6.945C-1.397,4.221 -0.589,2.341 0.876,0.876C2.341,-0.589 4.221,-1.397 6.945,-1.764C9.193,-2.066 12.11,-2.075 16,-2.075L34,-2.075C37.89,-2.075 40.807,-2.066 43.055,-1.764C45.779,-1.397 47.659,-0.589 49.124,0.876C50.589,2.341 51.397,4.221 51.764,6.945C52.066,9.193 52.075,12.11 52.075,16L52.075,34C52.075,37.89 52.066,40.807 51.764,43.055C51.397,45.779 50.589,47.659 49.124,49.124C47.659,50.589 45.779,51.397 43.055,51.764C40.807,52.066 37.89,52.075 34,52.075L16,52.075C12.11,52.075 9.193,52.066 6.945,51.764C4.221,51.397 2.341,50.589 0.876,49.124C-0.589,47.659 -1.397,45.779 -1.764,43.055C-2.066,40.807 -2.075,37.89 -2.075,34L-2.075,16ZM2.075,16L2.075,34C2.075,37.652 2.066,40.392 2.349,42.502C2.569,44.135 2.932,45.312 3.81,46.19C4.688,47.068 5.865,47.431 7.498,47.651C9.608,47.934 12.348,47.925 16,47.925L34,47.925C37.652,47.925 40.392,47.934 42.502,47.651C44.135,47.431 45.312,47.068 46.19,46.19C47.068,45.312 47.431,44.135 47.651,42.502C47.934,40.392 47.925,37.652 47.925,34L47.925,16C47.925,12.348 47.934,9.608 47.651,7.498C47.431,5.865 47.068,4.688 46.19,3.81C45.312,2.932 44.135,2.569 42.502,2.349C40.392,2.066 37.652,2.075 34,2.075L16,2.075C12.348,2.075 9.608,2.066 7.498,2.349C5.865,2.569 4.688,2.932 3.81,3.81C2.932,4.688 2.569,5.865 2.349,7.498C2.066,9.608 2.075,12.348 2.075,16Z"/>
    </g>
    <g transform="matrix(1.20532,0,0,1.20532,84.079277,154.990517)">
        <path d="M-2.075,16C-2.075,12.11 -2.066,9.193 -1.764,6.945C-1.397,4.221 -0.589,2.341 0.876,0.876C2.341,-0.589 4.221,-1.397 6.945,-1.764C9.193,-2.066 12.11,-2.075 16,-2.075L34,-2.075C37.89,-2.075 40.807,-2.066 43.055,-1.764C45.779,-1.397 47.659,-0.589 49.124,0.876C50.589,2.341 51.397,4.221 51.764,6.945C52.066,9.193 52.075,12.11 52.075,16L52.075,34C52.075,37.89 52.066,40.807 51.764,43.055C51.397,45.779 50.589,47.659 49.124,49.124C47.659,50.589 45.779,51.397 43.055,51.764C40.807,52.066 37.89,52.075 34,52.075L16,52.075C12.11,52.075 9.193,52.066 6.945,51.764C4.221,51.397 2.341,50.589 0.876,49.124C-0.589,47.659 -1.397,45.779 -1.764,43.055C-2.066,40.807 -2.075,37.89 -2.075,34L-2.075,16ZM2.075,16L2.075,34C2.075,37.652 2.066,40.392 2.349,42.502C2.569,44.135 2.932,45.312 3.81,46.19C4.688,47.068 5.865,47.431 7.498,47.651C9.608,47.934 12.348,47.925 16,47.925L34,47.925C37.652,47.925 40.392,47.934 42.502,47.651C44.135,47.431 45.312,47.068 46.19,46.19C47.068,45.312 47.431,44.135 47.651,42.502C47.934,40.392 47.925,37.652 47.925,34L47.925,16C47.925,12.348 47.934,9.608 47.651,7.498C47.431,5.865 47.068,4.688 46.19,3.81C45.312,2.932 44.135,2.569 42.502,2.349C40.392,2.066 37.652,2.075 34,2.075L16,2.075C12.348,2.075 9.608,2.066 7.498,2.349C5.865,2.569 4.688,2.932 3.81,3.81C2.932,4.688 2.569,5.865 2.349,7.498C2.066,9.608 2.075,12.348 2.075,16Z"/>
    </g>
    <g transform="matrix(1.20532,0,0,1.20532,155.079277,84.743489)">
        <path d="M-2.075,16C-2.075,12.11 -2.066,9.193 -1.764,6.945C-1.397,4.221 -0.589,2.341 0.876,0.876C2.341,-0.589 4.221,-1.397 6.945,-1.764C9.193,-2.066 12.11,-2.075 16,-2.075L34,-2.075C37.89,-2.075 40.807,-2.066 43.055,-1.764C45.779,-1.397 47.659,-0.589 49.124,0.876C50.589,2.341 51.397,4.221 51.764,6.945C52.066,9.193 52.075,12.11 52.075,16L52.075,34C52.075,37.89 52.066,40.807 51.764,43.055C51.397,45.779 50.589,47.659 49.124,49.124C47.659,50.589 45.779,51.397 43.055,51.764C40.807,52.066 37.89,52.075 34,52.075L16,52.075C12.11,52.075 9.193,52.066 6.945,51.764C4.221,51.397 2.341,50.589 0.876,49.124C-0.589,47.659 -1.397,45.779 -1.764,43.055C-2.066,40.807 -2.075,37.89 -2.075,34L-2.075,16ZM2.075,16L2.075,34C2.075,37.652 2.066,40.392 2.349,42.502C2.569,44.135 2.932,45.312 3.81,46.19C4.688,47.068 5.865,47.431 7.498,47.651C9.608,47.934 12.348,47.925 16,47.925L34,47.925C37.652,47.925 40.392,47.934 42.502,47.651C44.135,47.431 45.312,47.068 46.19,46.19C47.068,45.312 47.431,44.135 47.651,42.502C47.934,40.392 47.925,37.652 47.925,34L47.925,16C47.925,12.348 47.934,9.608 47.651,7.498C47.431,5.865 47.068,4.688 46.19,3.81C45.312,2.932 44.135,2.569 42.502,2.349C40.392,2.066 37.652,2.075 34,2.075L16,2.075C12.348,2.075 9.608,2.066 7.498,2.349C5.865,2.569 4.688,2.932 3.81,3.81C2.932,4.688 2.569,5.865 2.349,7.498C2.066,9.608 2.075,12.348 2.075,16Z"/>
    </g>
    <g transform="matrix(1.20532,0,0,1.20532,155.079277,154.990517)">
        <path d="M-2.075,16C-2.075,12.11 -2.066,9.193 -1.764,6.945C-1.397,4.221 -0.589,2.341 0.876,0.876C2.341,-0.589 4.221,-1.397 6.945,-1.764C9.193,-2.066 12.11,-2.075 16,-2.075L34,-2.075C37.89,-2.075 40.807,-2.066 43.055,-1.764C45.779,-1.397 47.659,-0.589 49.124,0.876C50.589,2.341 51.397,4.221 51.764,6.945C52.066,9.193 52.075,12.11 52.075,16L52.075,34C52.075,37.89 52.066,40.807 51.764,43.055C51.397,45.779 50.589,47.659 49.124,49.124C47.659,50.589 45.779,51.397 43.055,51.764C40.807,52.066 37.89,52.075 34,52.075L16,52.075C12.11,52.075 9.193,52.066 6.945,51.764C4.221,51.397 2.341,50.589 0.876,49.124C-0.589,47.659 -1.397,45.779 -1.764,43.055C-2.066,40.807 -2.075,37.89 -2.075,34L-2.075,16ZM2.075,16L2.075,34C2.075,37.652 2.066,40.392 2.349,42.502C2.569,44.135 2.932,45.312 3.81,46.19C4.688,47.068 5.865,47.431 7.498,47.651C9.608,47.934 12.348,47.925 16,47.925L34,47.925C37.652,47.925 40.392,47.934 42.502,47.651C44.135,47.431 45.312,47.068 46.19,46.19C47.068,45.312 47.431,44.135 47.651,42.502C47.934,40.392 47.925,37.652 47.925,34L47.925,16C47.925,12.348 47.934,9.608 47.651,7.498C47.431,5.865 47.068,4.688 46.19,3.81C45.312,2.932 44.135,2.569 42.502,2.349C40.392,2.066 37.652,2.075 34,2.075L16,2.075C12.348,2.075 9.608,2.066 7.498,2.349C5.865,2.569 4.688,2.932 3.81,3.81C2.932,4.688 2.569,5.865 2.349,7.498C2.066,9.608 2.075,12.348 2.075,16Z"/>
    </g>
</svg>
