<?xml version="1.0" encoding="UTF-8" standalone="no"?>
<!DOCTYPE svg PUBLIC "-//W3C//DTD SVG 1.1//EN" "http://www.w3.org/Graphics/SVG/1.1/DTD/svg11.dtd">
<svg width="100%" height="100%" viewBox="0 0 200 200" version="1.1" xmlns="http://www.w3.org/2000/svg" xmlns:xlink="http://www.w3.org/1999/xlink" xml:space="preserve" xmlns:affinity="https://www.affinity.studio/" style="fill-rule:evenodd;clip-rule:evenodd;stroke-linejoin:round;stroke-miterlimit:2;">
    <g transform="matrix(1.00334,0,0,1.00334,-1556.975877,-1593.370447)">
        <path d="M1669.148,1686.162C1669.193,1686.68 1669.217,1687.204 1669.217,1687.734C1669.217,1697.534 1661.26,1705.49 1651.461,1705.49C1641.661,1705.49 1633.705,1697.534 1633.705,1687.734C1633.705,1677.935 1641.661,1669.978 1651.461,1669.978C1654.63,1669.978 1657.606,1670.811 1660.183,1672.267C1661.153,1672.816 1661.641,1673.941 1661.377,1675.024C1661.114,1676.107 1660.163,1676.882 1659.05,1676.923C1655.961,1677.037 1653.49,1679.58 1653.49,1682.696C1653.49,1685.884 1656.078,1688.472 1659.266,1688.472C1661.53,1688.472 1663.492,1687.165 1664.439,1685.266C1664.937,1684.269 1666.037,1683.724 1667.132,1683.932C1668.227,1684.14 1669.051,1685.051 1669.148,1686.162ZM1663.237,1692.694C1662.008,1693.183 1660.668,1693.452 1659.266,1693.452C1653.33,1693.452 1648.51,1688.632 1648.51,1682.696C1648.51,1679.661 1649.769,1676.919 1651.795,1674.962C1651.684,1674.959 1651.573,1674.958 1651.461,1674.958C1644.409,1674.958 1638.685,1680.683 1638.685,1687.734C1638.685,1694.786 1644.409,1700.51 1651.461,1700.51C1656.753,1700.51 1661.299,1697.285 1663.237,1692.694Z"/>
    </g>
    <g transform="matrix(1.20532,0,0,1.20532,69.867003,69.867003)">
        <path d="M-2.075,16C-2.075,12.11 -2.066,9.193 -1.764,6.945C-1.397,4.221 -0.589,2.341 0.876,0.876C2.341,-0.589 4.221,-1.397 6.945,-1.764C9.193,-2.066 12.11,-2.075 16,-2.075L34,-2.075C37.89,-2.075 40.807,-2.066 43.055,-1.764C45.779,-1.397 47.659,-0.589 49.124,0.876C50.589,2.341 51.397,4.221 51.764,6.945C52.066,9.193 52.075,12.11 52.075,16L52.075,34C52.075,37.89 52.066,40.807 51.764,43.055C51.397,45.779 50.589,47.659 49.124,49.124C47.659,50.589 45.779,51.397 43.055,51.764C40.807,52.066 37.89,52.075 34,52.075L16,52.075C12.11,52.075 9.193,52.066 6.945,51.764C4.221,51.397 2.341,50.589 0.876,49.124C-0.589,47.659 -1.397,45.779 -1.764,43.055C-2.066,40.807 -2.075,37.89 -2.075,34L-2.075,16ZM2.075,16L2.075,34C2.075,37.652 2.066,40.392 2.349,42.502C2.569,44.135 2.932,45.312 3.81,46.19C4.688,47.068 5.865,47.431 7.498,47.651C9.608,47.934 12.348,47.925 16,47.925L34,47.925C37.652,47.925 40.392,47.934 42.502,47.651C44.135,47.431 45.312,47.068 46.19,46.19C47.068,45.312 47.431,44.135 47.651,42.502C47.934,40.392 47.925,37.652 47.925,34L47.925,16C47.925,12.348 47.934,9.608 47.651,7.498C47.431,5.865 47.068,4.688 46.19,3.81C45.312,2.932 44.135,2.569 42.502,2.349C40.392,2.066 37.652,2.075 34,2.075L16,2.075C12.348,2.075 9.608,2.066 7.498,2.349C5.865,2.569 4.688,2.932 3.81,3.81C2.932,4.688 2.569,5.865 2.349,7.498C2.066,9.608 2.075,12.348 2.075,16Z"/>
    </g>
</svg>
