<?xml version="1.0" encoding="UTF-8" standalone="no"?>
<!DOCTYPE svg PUBLIC "-//W3C//DTD SVG 1.1//EN" "http://www.w3.org/Graphics/SVG/1.1/DTD/svg11.dtd">
<svg width="100%" height="100%" viewBox="0 0 200 200" version="1.1" xmlns="http://www.w3.org/2000/svg" xmlns:xlink="http://www.w3.org/1999/xlink" xml:space="preserve" xmlns:affinity="https://www.affinity.studio/" style="fill-rule:evenodd;clip-rule:evenodd;stroke-linejoin:round;stroke-miterlimit:2;">
    <g transform="matrix(0.92385,0,0,0.92385,-383.605949,-1015.608042)">
        <g transform="matrix(1.226792,-0.708289,0.708289,1.226792,385.294142,1245.487819)">
            <path d="M77.467,8.176C79.975,3.831 81.337,1.742 83.404,0.549C85.469,-0.644 87.96,-0.779 92.977,-0.779L102.739,-0.779C107.757,-0.779 110.248,-0.644 112.313,0.549C114.379,1.742 115.742,3.832 118.25,8.176L123.131,16.63C125.64,20.976 126.768,23.2 126.768,25.585C126.768,27.971 125.639,30.195 123.131,34.541L118.25,42.994C115.742,47.339 114.378,49.429 112.313,50.622C110.248,51.814 107.757,51.949 102.739,51.949L92.977,51.949C87.96,51.949 85.47,51.814 83.404,50.622C81.338,49.429 79.975,47.34 77.467,42.994L72.586,34.541C70.077,30.195 68.949,27.971 68.949,25.585C68.949,23.2 70.077,20.976 72.586,16.63L77.467,8.176ZM80.775,10.086L75.894,18.54C73.894,22.005 72.769,23.683 72.769,25.585C72.769,27.488 73.894,29.166 75.894,32.631L80.775,41.084C82.775,44.549 83.666,46.362 85.314,47.314C86.961,48.264 88.977,48.129 92.977,48.129L102.739,48.129C106.74,48.129 108.756,48.264 110.403,47.314C112.05,46.363 112.942,44.549 114.942,41.084L119.823,32.631C121.823,29.166 122.948,27.488 122.948,25.585C122.948,23.683 121.823,22.005 119.823,18.54L114.942,10.086C112.942,6.622 112.05,4.808 110.403,3.857C108.756,2.906 106.74,3.041 102.739,3.041L92.977,3.041C88.977,3.041 86.961,2.906 85.314,3.857C83.666,4.808 82.775,6.622 80.775,10.086Z"/>
        </g>
        <g transform="matrix(0.769523,-0.444284,0.444284,0.769523,436.796527,1231.352234)">
            <path d="M76.484,7.608C79.144,3.002 80.645,0.831 82.836,-0.434C85.027,-1.699 87.657,-1.914 92.977,-1.914L102.739,-1.914C108.06,-1.914 110.691,-1.699 112.881,-0.434C115.071,0.831 116.573,3.002 119.233,7.608L124.114,16.063C126.774,20.671 127.903,23.056 127.903,25.585C127.903,28.115 126.774,30.501 124.114,35.108L119.233,43.561C116.574,48.169 115.07,50.34 112.88,51.605C110.69,52.869 108.059,53.084 102.739,53.084L92.977,53.084C87.658,53.084 85.027,52.869 82.837,51.605C80.646,50.34 79.144,48.169 76.484,43.562L71.603,35.108C68.943,30.5 67.814,28.115 67.814,25.585C67.814,23.056 68.943,20.671 71.603,16.063L76.484,7.608ZM81.758,10.654L76.877,19.107C75.027,22.312 73.904,23.826 73.904,25.585C73.904,27.345 75.027,28.859 76.877,32.063L81.758,40.517C83.608,43.721 84.357,45.451 85.881,46.331C87.404,47.21 89.278,46.994 92.977,46.994L102.739,46.994C106.439,46.994 108.312,47.21 109.836,46.331C111.358,45.451 112.109,43.721 113.959,40.517L118.84,32.064C120.69,28.859 121.813,27.345 121.813,25.585C121.813,23.826 120.69,22.312 118.84,19.108L113.959,10.654C112.109,7.45 111.358,5.72 109.835,4.84C108.312,3.96 106.439,4.176 102.739,4.176L92.977,4.176C89.278,4.176 87.405,3.96 85.882,4.84C84.358,5.72 83.608,7.45 81.758,10.654Z"/>
        </g>
        <g transform="matrix(1.226792,0.708289,-0.708289,1.226792,456.179288,1127.107857)">
            <path d="M84.689,47.864L81.381,49.774L72.586,34.541C70.077,30.195 68.949,27.971 68.949,25.585C68.949,23.2 70.077,20.976 72.586,16.63L72.6,16.606L81.706,1.352L84.986,3.31L75.893,18.542C73.894,22.006 72.769,23.684 72.769,25.585C72.769,27.488 73.894,29.166 75.894,32.631L84.689,47.864Z"/>
        </g>
        <g transform="matrix(1,0,0,1,-382,368)">
            <path d="M871.604,822.317C870.325,821.546 869.913,819.883 870.683,818.604C871.454,817.325 873.117,816.913 874.396,817.683L906.864,837.247C908.143,838.018 908.555,839.681 907.785,840.96C907.014,842.239 905.351,842.651 904.072,841.881L871.604,822.317Z"/>
        </g>
    </g>
</svg>
