<?xml version="1.0" encoding="UTF-8" standalone="no"?>
<!DOCTYPE svg PUBLIC "-//W3C//DTD SVG 1.1//EN" "http://www.w3.org/Graphics/SVG/1.1/DTD/svg11.dtd">
<svg width="100%" height="100%" viewBox="0 0 200 200" version="1.1" xmlns="http://www.w3.org/2000/svg" xmlns:xlink="http://www.w3.org/1999/xlink" xml:space="preserve" xmlns:serif="http://www.serif.com/" style="fill-rule:evenodd;clip-rule:evenodd;stroke-linecap:round;stroke-linejoin:round;stroke-miterlimit:1.5;">
    <g transform="matrix(0.92385,0,0,0.92385,-383.606062,-895.596456)">
        <g transform="matrix(1.226792,0.708289,-0.708289,1.226792,421.537959,976.959994)">
            <path d="M79.121,9.131C81.375,5.227 82.502,3.275 84.359,2.203C86.215,1.131 88.469,1.131 92.977,1.131" style="fill:none;fill-rule:nonzero;stroke:black;stroke-width:3.82px;"/>
        </g>
        <g transform="matrix(1.226792,0.708289,-0.708289,1.226792,421.537959,976.959994)">
            <path d="M102.739,1.131C107.248,1.131 109.502,1.131 111.358,2.203C113.214,3.275 114.342,5.227 116.596,9.131" style="fill:none;fill-rule:nonzero;stroke:black;stroke-width:3.82px;"/>
        </g>
        <g transform="matrix(1.226792,0.708289,-0.708289,1.226792,421.537959,976.959994)">
            <path d="M121.477,17.585C123.731,21.49 124.858,23.442 124.858,25.585C124.858,27.729 123.731,29.681 121.477,33.586" style="fill:none;fill-rule:nonzero;stroke:black;stroke-width:3.82px;"/>
        </g>
        <g transform="matrix(1.226792,0.708289,-0.708289,1.226792,421.537959,976.959994)">
            <path d="M116.596,42.039C114.342,45.944 113.214,47.896 111.358,48.968C109.502,50.039 107.248,50.039 102.739,50.039" style="fill:none;fill-rule:nonzero;stroke:black;stroke-width:3.82px;"/>
        </g>
        <g transform="matrix(1.226792,0.708289,-0.708289,1.226792,421.537959,976.959994)">
            <path d="M92.977,50.039C88.469,50.039 86.215,50.039 84.359,48.968C82.502,47.896 81.375,45.944 79.121,42.039" style="fill:none;fill-rule:nonzero;stroke:black;stroke-width:3.82px;"/>
        </g>
        <g transform="matrix(1.226792,0.708289,-0.708289,1.226792,421.537959,976.959994)">
            <path d="M74.24,33.586C71.986,29.681 70.859,27.729 70.859,25.585C70.859,23.442 71.986,21.49 74.24,17.585" style="fill:none;fill-rule:nonzero;stroke:black;stroke-width:3.82px;"/>
        </g>
        <g transform="matrix(1,0,0,1,-382,368)">
            <path d="M905.468,690.646L905.468,671.413" style="fill:none;stroke:black;stroke-width:5.41px;"/>
        </g>
        <g transform="matrix(1,0,0,1,-382,425.261186)">
            <path d="M905.468,690.646L905.468,671.413" style="fill:none;stroke:black;stroke-width:5.41px;"/>
        </g>
        <g transform="matrix(0.5,0.866025,-0.866025,0.5,685.317575,-61.328275)">
            <path d="M905.468,690.646L905.468,671.413" style="fill:none;stroke:black;stroke-width:5.41px;"/>
        </g>
        <g transform="matrix(0.5,0.866025,-0.866025,0.5,635.727933,-32.697682)">
            <path d="M905.468,690.646L905.468,671.413" style="fill:none;stroke:black;stroke-width:5.41px;"/>
        </g>
        <g transform="matrix(-0.5,0.866025,-0.866025,-0.5,1590.785555,648.331722)">
            <path d="M905.468,690.646L905.468,671.413" style="fill:none;stroke:black;stroke-width:5.41px;"/>
        </g>
        <g transform="matrix(-0.5,0.866025,-0.866025,-0.5,1541.195913,619.701129)">
            <path d="M905.468,690.646L905.468,671.413" style="fill:none;stroke:black;stroke-width:5.41px;"/>
        </g>
    </g>
</svg>
